<svg width="200" height="80" viewBox="0 0 200 80" fill="none" xmlns="http://www.w3.org/2000/svg">
<path d="M12.5666 51.4947C10.3068 51.4947 8.21238 50.9993 6.37516 50.0085C4.53794 49.0178 3.06816 47.6233 2.02094 45.8619C0.973728 44.1006 0.440933 42.1007 0.440933 39.8989C0.440933 37.6972 0.973728 35.6973 2.03932 33.9359C3.08653 32.1745 4.55631 30.7801 6.41191 29.7893C8.24913 28.7986 10.3252 28.3032 12.6033 28.3032C14.4406 28.3032 16.1492 28.6334 17.6741 29.2756C19.052 29.8444 20.2462 30.67 21.2383 31.7158C21.4036 31.8993 21.4955 32.1378 21.4955 32.3947C21.4955 32.6516 21.3853 32.8717 21.2015 33.0369L19.2725 34.8533C19.1071 35.0184 18.8683 35.1102 18.6294 35.1102C18.3906 35.1102 18.1518 35.0184 17.9864 34.8533C16.5717 33.4772 14.808 32.7617 12.8054 32.7617C11.3908 32.7617 10.1231 33.0736 9.00239 33.679C7.90006 34.2845 7.01819 35.1285 6.41191 36.211C5.78725 37.2936 5.47492 38.5412 5.47492 39.9173C5.47492 41.2934 5.78725 42.541 6.41191 43.6235C7.03656 44.706 7.90006 45.55 9.00239 46.1555C10.1047 46.761 11.3908 47.0729 12.8054 47.0729C14.8448 47.0729 16.5534 46.3757 17.9864 44.9629C18.1701 44.7978 18.3906 44.6877 18.6478 44.6877C18.8866 44.6877 19.1255 44.7794 19.2908 44.9446L21.2383 46.7793C21.422 46.9445 21.5139 47.183 21.5322 47.4215C21.5322 47.6784 21.4404 47.9169 21.275 48.082C20.2829 49.1278 19.0704 49.9535 17.6925 50.5223C16.1124 51.1828 14.4038 51.4947 12.5666 51.4947Z" fill="#DC1B48"/>
<path d="M32.4821 51.2011C31.9677 51.2011 31.5451 50.7791 31.5451 50.2654V43.2933L23.4797 30.0462C23.296 29.7526 23.296 29.404 23.4613 29.1105C23.6267 28.8169 23.939 28.6334 24.2697 28.6334H27.4848C27.8155 28.6334 28.1095 28.7986 28.2932 29.0921L34.1356 38.743H34.1723L40.0698 29.0921C40.2352 28.8169 40.5475 28.6518 40.8598 28.6518H43.7443C44.075 28.6518 44.3873 28.8352 44.5526 29.1288C44.718 29.4224 44.718 29.771 44.5343 30.0645L36.5056 43.2382V50.2837C36.5056 50.7975 36.083 51.2195 35.5686 51.2195H32.4821V51.2011Z" fill="#DC1B48"/>
<path d="M54.5104 51.4948C52.7834 51.4948 51.1115 51.2563 49.4948 50.7609C48.0434 50.3205 46.8492 49.7517 45.9122 49.0362C45.5631 48.7793 45.4529 48.3023 45.6182 47.917L46.6654 45.6602C46.8124 45.3299 47.1431 45.1098 47.5106 45.1098C47.6943 45.1098 47.878 45.1648 48.0434 45.2749C48.7966 45.7886 49.7152 46.2473 50.7624 46.5959C52.0118 47.0179 53.2611 47.2381 54.5287 47.2381C56.0536 47.2381 57.1927 46.9996 57.9092 46.5409C58.5706 46.1189 58.9013 45.5685 58.9013 44.8896C58.9013 44.3942 58.736 44.0089 58.3869 43.697C57.9827 43.3484 57.4683 43.0548 56.8437 42.853C56.1823 42.6328 55.2453 42.376 54.0694 42.0824C52.3976 41.6971 51.0197 41.2934 49.9724 40.8898C48.8701 40.4678 47.9331 39.8073 47.1431 38.9266C46.3347 38.0092 45.9306 36.7616 45.9306 35.2387C45.9306 33.9543 46.2796 32.7801 46.9961 31.7159C47.6943 30.6701 48.7599 29.8261 50.1562 29.2206C51.5341 28.6152 53.2243 28.3216 55.1902 28.3216C56.5497 28.3216 57.9092 28.4867 59.232 28.8353C60.4079 29.1289 61.4367 29.5509 62.3369 30.083C62.7411 30.3215 62.9065 30.7985 62.7228 31.2389L61.8041 33.4957C61.6572 33.8443 61.3265 34.0828 60.9407 34.0828C60.7937 34.0828 60.6467 34.0461 60.4997 33.9727C59.7281 33.5507 58.9013 33.2388 58.0562 33.0003C57.0641 32.725 56.0904 32.5783 55.1534 32.5783C53.6653 32.5783 52.5446 32.8168 51.8464 33.2938C51.2034 33.7342 50.8727 34.3213 50.8727 35.0552C50.8727 35.5323 51.038 35.9176 51.3871 36.2295C51.7913 36.5781 52.3057 36.8533 52.9304 37.0735C53.5918 37.2936 54.5288 37.5505 55.7046 37.8441C57.3397 38.211 58.6992 38.6147 59.7465 39.0183C60.8488 39.4403 61.8042 40.1008 62.5942 40.9815C63.4025 41.8806 63.8251 43.1099 63.8251 44.6327C63.8251 45.9171 63.476 47.0913 62.7595 48.1371C62.0614 49.183 60.9958 50.0086 59.5811 50.6141C58.1664 51.2012 56.4762 51.4948 54.5104 51.4948Z" fill="#DC1B48"/>
<path d="M73.5624 51.2011C73.0479 51.2011 72.6254 50.7791 72.6254 50.2654V32.9635C72.6254 32.9635 72.6254 32.9451 72.607 32.9451H66.3237C65.8093 32.9451 65.3867 32.5231 65.3867 32.0094V29.5508C65.3867 29.037 65.8093 28.6151 66.3237 28.6151H83.8692C84.3836 28.6151 84.8062 29.037 84.8062 29.5508V32.0094C84.8062 32.5231 84.3836 32.9451 83.8692 32.9451H77.5859C77.5675 32.9451 77.5675 32.9451 77.5675 32.9635V50.2654C77.5675 50.7791 77.145 51.2011 76.6305 51.2011H73.5624Z" fill="#DC1B48"/>
<path d="M88.4439 51.2011C87.9295 51.2011 87.5069 50.7791 87.5069 50.2654V29.5508C87.5069 29.037 87.9295 28.6151 88.4439 28.6151H91.5488C92.0632 28.6151 92.4858 29.037 92.4858 29.5508V50.247C92.4858 50.7608 92.0632 51.1828 91.5488 51.1828H88.4439V51.2011Z" fill="#DC1B48"/>
<path d="M196.013 54.5221H103.491C101.286 54.5221 99.5039 52.7423 99.5039 50.5406V29.2756C99.5039 27.0739 101.286 25.2941 103.491 25.2941H196.013C198.218 25.2941 200 27.0739 200 29.2756V50.5406C200 52.7423 198.218 54.5221 196.013 54.5221Z" fill="white"/>
<path d="M131.435 26.3216C133.327 27.4225 134.319 29.1471 134.117 30.9452C133.952 32.4497 132.941 33.624 131.49 34.0276C131.416 34.046 131.343 34.0276 131.306 33.9543C130.094 32.1378 129.579 30.2847 129.855 28.7068V28.6885C130.039 27.6977 130.535 26.8537 131.251 26.3399C131.306 26.2849 131.38 26.2849 131.435 26.3216Z" fill="#41A54B"/>
<path d="M132.978 32.8167C131.802 28.6151 127.117 30.0645 125.795 30.4682C126.585 33.2754 129.524 35.6789 132.978 32.8167Z" fill="#41A54B"/>
<path d="M123.351 31.1287V48.6875C123.351 49.0177 123.076 49.2929 122.745 49.2929H120.062C119.879 49.2929 119.713 49.2195 119.585 49.0728L111.464 39.2017C111.097 38.7613 110.38 39.0182 110.38 39.587V48.6875C110.38 49.0177 110.105 49.2929 109.774 49.2929H106.687C106.357 49.2929 106.081 49.0177 106.081 48.6875V31.1287C106.081 30.7984 106.357 30.5232 106.687 30.5232H109.388C109.572 30.5232 109.737 30.5966 109.866 30.7434L117.95 40.5961C118.317 41.0364 119.034 40.7796 119.034 40.2108V31.1287C119.034 30.7984 119.309 30.5232 119.64 30.5232H122.726C123.076 30.5232 123.351 30.7984 123.351 31.1287Z" fill="#333333"/>
<path d="M164.119 49.2929C163.917 49.2929 163.733 49.2012 163.623 49.0361L160.187 44.0638H159.967H156.789C156.458 44.0638 156.182 44.339 156.182 44.6693V48.6875C156.182 49.0177 155.907 49.2929 155.576 49.2929H152.434C152.104 49.2929 151.828 49.0177 151.828 48.6875V31.1287C151.828 30.7984 152.104 30.5232 152.434 30.5232H159.967C161.639 30.5232 163.072 30.7984 164.303 31.3488C165.534 31.8993 166.471 32.6882 167.132 33.7157C167.794 34.7432 168.124 35.9358 168.124 37.3302C168.124 38.7246 167.793 39.9356 167.114 40.9447C166.563 41.7704 165.809 42.4492 164.872 42.963C164.56 43.1464 164.45 43.5501 164.652 43.8436L167.793 48.3388C168.069 48.7425 167.793 49.2929 167.297 49.2929H164.119ZM162.686 34.9083C162.006 34.3395 161.014 34.0643 159.71 34.0643H156.77C156.439 34.0643 156.164 34.3395 156.164 34.6698V39.9906C156.164 40.3209 156.439 40.5961 156.77 40.5961H159.71C161.014 40.5961 162.006 40.3025 162.686 39.7338C163.366 39.165 163.715 38.3577 163.715 37.3119C163.715 36.2844 163.366 35.4771 162.686 34.9083Z" fill="#333333"/>
<path d="M189.344 48.6875L189.326 40.2291C189.326 39.6053 188.517 39.3851 188.187 39.9172L183.961 47.0178C183.851 47.2013 183.649 47.3114 183.447 47.3114H182.179C181.958 47.3114 181.775 47.2013 181.665 47.0178L177.457 40.1191C177.145 39.587 176.337 39.8255 176.337 40.431V48.6691C176.337 48.9994 176.061 49.2746 175.73 49.2746H172.864C172.534 49.2746 172.258 48.9994 172.258 48.6691V31.1287C172.258 30.7984 172.534 30.5232 172.864 30.5232H175.51C175.73 30.5232 175.914 30.6333 176.024 30.8168L182.363 41.3117C182.602 41.697 183.171 41.697 183.41 41.3117L189.638 30.8168C189.748 30.6333 189.95 30.5232 190.171 30.5232H192.78C193.11 30.5232 193.386 30.7984 193.386 31.1287L193.441 48.6875C193.441 49.0177 193.166 49.2929 192.835 49.2929H189.969C189.601 49.2929 189.344 49.0177 189.344 48.6875Z" fill="#333333"/>
<path d="M137.571 33.8625C138.912 33.8625 140.07 34.1377 141.08 34.6881C142.054 35.2202 142.807 35.9174 143.358 36.8348C143.91 37.7339 144.167 38.743 144.167 39.9172C144.167 41.0915 143.91 42.1006 143.358 42.9997C142.807 43.917 142.054 44.6143 141.08 45.1463C140.051 45.6968 138.912 45.972 137.571 45.972C136.23 45.972 135.073 45.6968 134.025 45.1463C133.052 44.6143 132.298 43.917 131.766 43.018C131.214 42.119 130.957 41.1098 130.957 39.9356C130.957 38.7613 131.214 37.7522 131.766 36.8532C132.317 35.9541 133.052 35.2569 134.025 34.7248C135.073 34.1377 136.23 33.8625 137.571 33.8625ZM137.571 30.1929C135.624 30.1929 133.86 30.6149 132.298 31.4589C130.737 32.3029 129.506 33.4588 128.624 34.9266C127.742 36.3945 127.301 38.0641 127.301 39.8989C127.301 41.7337 127.742 43.4033 128.624 44.8711C129.506 46.3389 130.737 47.5132 132.298 48.3388C133.86 49.1828 135.624 49.6048 137.571 49.6048C139.519 49.6048 141.282 49.1828 142.844 48.3388C144.406 47.4948 145.637 46.3389 146.518 44.8711C147.419 43.4033 147.86 41.7337 147.86 39.8989C147.86 38.0641 147.419 36.3945 146.518 34.9266C145.618 33.4588 144.387 32.2846 142.844 31.4589C141.282 30.6149 139.537 30.1929 137.571 30.1929Z" fill="#DC1B48"/>
<path fill-rule="evenodd" clip-rule="evenodd" d="M132.167 31.2164C133.773 30.3485 135.583 29.9172 137.571 29.9172C139.578 29.9172 141.369 30.3485 142.975 31.2161C144.561 32.0652 145.828 33.2738 146.754 34.7825C147.683 36.2978 148.135 38.0183 148.135 39.8989C148.135 41.7791 147.683 43.4992 146.754 45.0142C145.846 46.5261 144.578 47.7154 142.975 48.5815C141.369 49.4494 139.56 49.8806 137.571 49.8806C135.583 49.8806 133.774 49.4496 132.168 48.5821C130.563 47.733 129.295 46.5238 128.388 45.0132C127.478 43.4989 127.025 41.7795 127.025 39.8989C127.025 38.0184 127.478 36.2989 128.388 34.7847C129.296 33.2723 130.564 32.0826 132.167 31.2164ZM137.571 30.4687C135.665 30.4687 133.947 30.8815 132.429 31.7015C130.909 32.5233 129.715 33.6454 128.86 35.0687C128.006 36.4901 127.577 38.1099 127.577 39.8989C127.577 41.6879 128.006 43.3077 128.86 44.7292C129.716 46.1538 130.91 47.2929 132.427 48.0951L132.429 48.0963L132.429 48.0963C133.947 48.9164 135.665 49.3291 137.571 49.3291C139.478 49.3291 141.196 48.9164 142.713 48.0963C144.233 47.2745 145.427 46.1524 146.282 44.7292L146.283 44.727L146.283 44.727C147.155 43.3067 147.584 41.6879 147.584 39.8989C147.584 38.11 147.155 36.4912 146.283 35.0708C145.408 33.6441 144.213 32.5043 142.714 31.7021L142.713 31.7015C141.195 30.8814 139.496 30.4687 137.571 30.4687ZM137.571 34.1383C136.27 34.1383 135.16 34.4046 134.16 34.9654L134.159 34.9661L134.158 34.9668C133.225 35.4766 132.526 36.1406 132.001 36.9973C131.48 37.8466 131.233 38.8042 131.233 39.9356C131.233 41.067 131.48 42.0246 132.001 42.8739L132.002 42.8757L132.003 42.8775C132.507 43.7286 133.221 44.3924 134.156 44.9033C135.159 45.4302 136.271 45.6963 137.571 45.6963C138.872 45.6963 139.965 45.4302 140.949 44.9038C141.883 44.3932 142.599 43.7291 143.122 42.8577L143.123 42.8556L143.123 42.8556C143.644 42.0062 143.891 41.0486 143.891 39.9173C143.891 38.7859 143.644 37.8283 143.123 36.979L143.122 36.9769L143.122 36.9769C142.598 36.1051 141.883 35.4409 140.948 34.9302C139.984 34.405 138.873 34.1383 137.571 34.1383ZM133.892 34.4836C134.986 33.8706 136.191 33.5868 137.571 33.5868C138.951 33.5868 140.156 33.8704 141.212 34.446L141.213 34.4462C142.225 34.9994 143.016 35.7293 143.594 36.6918C144.175 37.6403 144.443 38.7006 144.443 39.9173C144.443 41.1339 144.175 42.1943 143.594 43.1428C143.016 44.1053 142.225 44.8351 141.213 45.3883L141.21 45.3895L141.21 45.3895C140.137 45.9636 138.953 46.2478 137.571 46.2478C136.19 46.2478 134.988 45.9637 133.897 45.3904L133.895 45.3894L133.893 45.3883C132.882 44.8356 132.09 44.1059 131.529 43.1604C130.949 42.2121 130.681 41.152 130.681 39.9356C130.681 38.7185 130.949 37.6578 131.531 36.7091C132.107 35.7681 132.878 35.0379 133.892 34.4836Z" fill="white"/>
</svg>
